<svg width="327" height="263" viewBox="0 0 327 263" fill="none" xmlns="http://www.w3.org/2000/svg">
<path d="M146.5 90.8C146.5 84.6 145.6 79.1 143.9 74.3C142.2 69.5 139.8 65.3 136.6 62C133.5 58.6 129.7 56.1 125.3 54.3C120.9 52.5 116.1 51.7 110.9 51.7C105.4 51.7 100.2 52.7 95.6 54.6C90.9 56.5 86.9 59.2 83.5 62.7C80.1 66.2 77.4 70.3 75.5 75.2C73.6 80 72.6 85.3 72.6 91.1C72.6 96.5 73.5 101.6 75.2 106.4C77 111.2 79.5 115.3 82.7 118.9C86 122.4 89.9 125.2 94.6 127.3C99.3 129.4 104.6 130.4 110.4 130.4C117.4 130.4 123.6 129.3 128.9 127C134.2 124.7 139.1 120.7 143.6 114.9L134.2 107.5C131.2 111.2 127.9 114 124.1 116C120.4 117.9 115.8 118.9 110.4 118.9C107 118.9 103.9 118.3 101 117C98.1 115.7 95.6 114 93.5 111.8C91.4 109.6 89.6 107.1 88.3 104.1C87 101.2 86.2 98.0999 86 94.8999H146.4V90.8H146.5ZM86.1 84.3C87 77.9 89.5 72.8 93.8 69C98.1 65.2 103.7 63.2 110.6 63.2C117.5 63.2 123 65.1 126.9 69C130.8 72.8 132.9 77.9 133.1 84.3H86.1Z" fill="white"/>
<path d="M232.1 90.8C232.1 84.6 231.2 79.1 229.5 74.3C227.8 69.5 225.4 65.3 222.2 62C219.1 58.6 215.3 56.1 210.9 54.3C206.5 52.5 201.7 51.7 196.5 51.7C191 51.7 185.8 52.7 181.2 54.6C176.5 56.5 172.5 59.2 169.1 62.7C165.7 66.2 163 70.3 161.1 75.2C159.2 80 158.2 85.3 158.2 91.1C158.2 96.5 159.1 101.6 160.8 106.4C162.6 111.2 165.1 115.3 168.3 118.9C171.6 122.4 175.5 125.2 180.2 127.3C184.9 129.4 190.2 130.4 196 130.4C203 130.4 209.2 129.3 214.5 127C219.8 124.7 224.7 120.7 229.2 114.9L219.8 107.5C216.8 111.2 213.5 114 209.7 116C206 117.9 201.4 118.9 196 118.9C192.6 118.9 189.5 118.3 186.6 117C183.7 115.7 181.2 114 179.1 111.8C177 109.6 175.2 107.1 173.9 104.1C172.6 101.2 171.8 98.0999 171.6 94.8999H232V90.8H232.1ZM171.7 84.3C172.6 77.9 175.1 72.8 179.4 69C183.7 65.2 189.3 63.2 196.2 63.2C203.1 63.2 208.6 65.1 212.5 69C216.4 72.8 218.5 77.9 218.7 84.3H171.7Z" fill="white"/>
<path d="M247.6 53.6V164.8H260.1V115.1H260.4C262.7 119.4 266.4 123 271.5 125.9C276.6 128.8 282.4 130.3 289.2 130.3C294.4 130.3 299.3 129.3 303.9 127.3C308.5 125.3 312.4 122.6 315.8 119.1C319.2 115.6 321.8 111.4 323.7 106.6C325.6 101.8 326.6 96.6 326.6 90.9C326.6 85.3 325.6 80 323.7 75.2C321.8 70.4 319.1 66.3 315.7 62.7C312.3 59.2 308.2 56.4 303.3 54.5C298.5 52.5 293.1 51.5 287.2 51.5C281.8 51.5 276.8 52.6 272.3 54.9C267.8 57.1 263.8 60.3 260.4 64.3H260.1V53.6H247.6ZM261.9 80C263.1 76.6 264.9 73.7 267.3 71.2C269.6 68.7 272.4 66.7 275.7 65.3C278.9 63.9 282.6 63.1 286.6 63.1C290.6 63.1 294.3 63.8 297.5 65.3C300.8 66.7 303.5 68.7 305.9 71.2C308.2 73.7 310 76.6 311.3 80C312.5 83.4 313.1 87 313.1 90.9C313.1 94.8 312.5 98.5 311.3 101.8C310.1 105.2 308.3 108.1 305.9 110.6C303.6 113.1 300.8 115.1 297.5 116.5C294.3 117.9 290.6 118.7 286.6 118.7C282.6 118.7 278.9 118 275.7 116.5C272.4 115.1 269.7 113.1 267.3 110.6C265 108.1 263.2 105.2 261.9 101.8C260.7 98.4 260.1 94.8 260.1 90.9C260.1 87 260.7 83.4 261.9 80Z" fill="white"/>
<path d="M75.3 201.6C77.1 206.4 79.6 210.5 82.8 214.1C86.1 217.6 90 220.4 94.7 222.5C99.4 224.6 104.7 225.6 110.5 225.6C117.5 225.6 123.7 224.5 129 222.2C134.3 219.9 139.2 215.9 143.7 210.1L134.3 202.7C131.3 206.4 128 209.2 124.2 211.2C120.5 213.1 115.9 214.1 110.5 214.1C107.1 214.1 104 213.5 101.1 212.2C98.2 210.9 95.7 209.2 93.6 207C91.5 204.8 89.7 202.3 88.4 199.3C87.1 196.4 86.3 193.3 86.1 190.1H146.5V186.1C146.5 179.9 145.6 174.4 143.9 169.6C142.2 164.8 139.8 160.6 136.6 157.3C133.5 153.9 129.7 151.4 125.3 149.6C120.9 147.8 116.1 147 110.9 147C105.4 147 100.2 148 95.6 149.9C90.9 151.8 86.9 154.5 83.5 158C80.1 161.5 77.4 165.6 75.5 170.5C73.6 175.3 72.6 180.6 72.6 186.4C72.7 191.7 73.5 196.8 75.3 201.6ZM93.7 164.2C98 160.4 103.6 158.4 110.5 158.4C117.4 158.4 122.9 160.3 126.8 164.2C130.7 168 132.8 173.1 133 179.5H86C86.9 173.2 89.5 168.1 93.7 164.2Z" fill="white"/>
<path d="M183.4 224.1L178.3 238.2C176.9 241.9 175.3 244.9 173.3 247.1C171.4 249.3 168.4 250.5 164.3 250.5C162.5 250.5 160.9 250.4 159.5 250.3C158.1 250.1 156.8 249.8 155.5 249.3L153.9 260.2C155.6 261 157.4 261.6 159.4 261.8C161.4 262 163.3 262.1 165.1 262.1C168.8 262.1 172 261.6 174.6 260.6C177.2 259.6 179.4 258.2 181.3 256.3C183.2 254.4 184.8 252.2 186.1 249.6C187.4 247 188.7 244.1 190 240.9L226.1 149H212.5L190.3 207.6H190L166.8 149H152.3L183.4 224.1Z" fill="white"/>
<path d="M0.300049 0.399902V102.9V128.4V223.7H12.7V184.3L49.8001 223.7H68.2L28.4001 182.9L64.5 148.9H46.8001L12.7 181.8V128.4V102.9V89.0999L49.8001 128.4H68.2L28.4001 87.5999L64.5 53.5999H46.8001L12.7 86.4999V0.399902H0.300049Z" fill="white"/>
</svg>
